<?xml version="1.0" encoding="UTF-8"?>
<svg width="1478px" height="425px" viewBox="0 0 1478 425" version="1.1" xmlns="http://www.w3.org/2000/svg" xmlns:xlink="http://www.w3.org/1999/xlink">
    <title>编组 4</title>
    <g id="设计稿-未完全确定" stroke="none" stroke-width="1" fill="none" fill-rule="evenodd" opacity="0.300000012">
        <g id="一键买卖首页——买【未登录】" transform="translate(-7.000000, -573.000000)">
            <g id="编组-4" transform="translate(1.000000, 48.000000)">
                <g transform="translate(6.000000, 525.000000)" id="编组-3">
                    <g transform="translate(412.000000, 129.000000)">
                        <circle id="椭圆形" fill="#2C3DCC" opacity="0.400000006" cx="77.5" cy="77.5" r="77.5"></circle>
                        <path d="M94.9868495,76.2516594 C96.5782796,74.0829628 97.5276111,71.3682308 97.5276111,68.4190942 C97.5276111,61.3221778 92.0451862,55.5686812 85.2846529,55.5686812 C84.7432482,55.5686812 84.0856944,55.5686812 83.3335353,55.5686812 L83.3335353,45.6316082 C83.3335353,45.0658573 82.8539519,44.6043165 82.2694597,44.6043165 L78.7180136,44.6043165 C78.1321163,44.6043165 77.6539379,45.0674927 77.6539379,45.6316082 L77.6539379,55.5686812 L71.9766823,55.5686812 L71.9766823,45.6316082 C71.9766823,45.0658573 71.4966305,44.6043165 70.9126066,44.6043165 L67.3644389,44.6043165 C66.7785416,44.6043165 66.3008316,45.0674927 66.3008316,45.6316082 L66.3008316,55.5686812 L54.5890682,55.5686812 C54.001438,55.5686812 53.5251799,56.0285867 53.5251799,56.5959729 L53.5251799,60.0566657 C53.5251799,60.5860293 53.9346523,61.0442539 54.4811619,61.0922251 C58.4798289,61.4462396 60.6230608,64.0367735 60.6230608,67.2195879 L60.6230608,88.4652278 C60.6230608,91.3285069 59.0931242,93.6016861 55.74892,93.9124085 C55.2743947,93.9573814 54.8803308,94.2830948 54.7912519,94.7364587 L54.11281,98.2302679 C53.9911813,98.8539839 54.4879997,99.4309099 55.1458813,99.4309099 L66.2970849,99.4309099 L66.2970849,109.368119 C66.2970849,109.934143 66.7771366,110.395683 67.3611605,110.395683 L70.9093282,110.395683 C71.4952255,110.395683 71.9729355,109.932326 71.9729355,109.368119 L71.9729355,99.4309099 L77.6506595,99.4309099 L77.6506595,109.368119 C77.6506595,109.934143 78.1302429,110.395683 78.7147351,110.395683 L82.2629029,110.395683 C82.8488001,110.395683 83.3265101,109.932326 83.3265101,109.368119 L83.3265101,99.4309099 C85.338044,99.4309099 87.0081556,99.4309099 88.1167239,99.4309099 C94.8786623,99.4309099 100.359697,93.7552302 100.359697,86.753075 C100.366239,82.38252 98.2334043,78.5311984 94.9868495,76.2516594 Z M72.2589868,63.4018499 C72.2589868,63.4018499 77.5312618,63.4018499 80.6549197,63.4018499 C83.7781254,63.4018499 86.309342,65.505395 86.309342,68.1011955 C86.309342,70.6968829 83.7781254,72.8006166 80.6549197,72.8006166 C77.5312618,72.8006166 72.2589868,72.8006166 72.2589868,72.8006166 L72.2589868,63.4018499 Z M84.6842805,91.5981501 C81.1997894,91.5981501 72.2589868,91.5981501 72.2589868,91.5981501 L72.2589868,82.1993834 C72.2589868,82.1993834 81.1997894,82.1993834 84.6842805,82.1993834 C88.1687716,82.1993834 90.9927938,84.3031002 90.9927938,86.8987667 C90.9927938,89.4944332 88.1687716,91.5981501 84.6842805,91.5981501 Z" id="Shape" fill="#1049C4" fill-rule="nonzero" transform="translate(76.942446, 77.500000) rotate(24.000000) translate(-76.942446, -77.500000) "></path>
                    </g>
                    <g transform="translate(68.869194, 108.726549) rotate(27.000000) translate(-68.869194, -108.726549) translate(17.869194, 57.726549)">
                        <circle id="椭圆形" fill="#2C3DCC" opacity="0.400000006" cx="50.5681948" cy="50.9657544" r="50.5"></circle>
                        <path d="M50.5416898,82.5837561 C50.3178352,82.5837561 50.0939805,82.5265781 49.9262388,82.4119162 L31.0663641,70.2577565 C30.8984731,70.1430946 30.7305821,69.9709489 30.6746185,69.799109 C30.6186548,69.7416251 30.6186548,69.6269632 30.6186548,69.5697852 C30.5626911,69.3976395 30.5626911,69.2829776 30.6186548,69.1111377 L30.6186548,69.0536538 L36.774658,40.2736432 C36.774658,40.1589814 36.8306217,40.1016504 36.8865853,39.9869885 C36.8865853,39.9296576 36.942549,39.8723266 36.9985127,39.8149957 L49.7023841,22.0424037 C49.9262388,21.755749 50.2620207,21.5837561 50.5978027,21.5837561 C50.9335847,21.5837561 51.2693667,21.755749 51.4932214,22.0424037 L64.1968242,39.8149957 C64.3087515,39.9296576 64.3648644,40.1016504 64.4206789,40.2736432 L70.5766821,69.0536538 L70.5766821,69.5697852 C70.5766821,69.6269632 70.5208676,69.6844471 70.5208676,69.799109 C70.4089403,69.9709489 70.297013,70.1430946 70.1289727,70.2577565 L51.1574394,82.4119162 C50.9893992,82.5265781 50.7655445,82.5837561 50.5416898,82.5837561 Z M36.7305282,70.3837561 L49.0382205,79.5337561 L46.5978966,70.3837561 L36.7305282,70.3837561 Z M54.5554619,70.3837561 L52.1151436,79.5337561 L64.4228359,70.3837561 L54.5554619,70.3837561 Z M49.0382205,70.3837561 L50.5766821,76.4837561 L52.1151436,70.3837561 L49.0382205,70.3837561 Z M55.1920667,67.3337561 L67.499759,67.3337561 L59.6297787,55.1337561 L55.1920667,67.3337561 Z M47.7257655,67.3337561 L53.4277133,67.3337561 L58.2689897,51.200199 L50.576596,36.8337561 L42.8843744,51.200199 L47.7257655,67.3337561 Z M33.6536051,67.3337561 L45.9612974,67.3337561 L41.5233469,55.1337561 L33.6536051,67.3337561 Z M61.3459128,53.2187379 L67.499759,64.2837561 L63.5944335,45.9837561 L61.3459128,53.2187379 Z M37.5968464,45.9837561 L33.6536051,64.2837561 L39.8074513,53.1817561 L37.5968464,45.9837561 Z M52.1151436,35.8580525 L59.0630344,49.0337561 L61.3459128,41.2896573 L52.1151436,27.6837561 L52.1151436,35.8580525 Z M39.8074513,41.2896573 L42.05278,49.0337561 L49.0382205,35.8580525 L49.0382205,27.6837561 L39.8074513,41.2896573 Z" id="Shape" fill="#1049C4" fill-rule="nonzero"></path>
                    </g>
                    <g transform="translate(246.000000, 180.000000)">
                        <circle id="椭圆形" fill="#2C3DCC" opacity="0.400000006" cx="56.5" cy="56.5" r="56.5"></circle>
                        <path d="M78,54.9291226 C78,52.6319785 70.868549,50.7132107 61.3671629,50.2558544 L61.3671629,45.1140831 L72.5042342,45.1140831 L72.5042342,37 L41.4157046,37 L41.4157046,45.1140831 L52.7136673,45.1140831 L52.7136673,50.2519334 C43.1712965,50.7020078 36,52.6252568 36,54.9291226 C36,57.2335485 43.1712965,59.1567975 52.7136673,59.607152 L52.7136673,76 L61.3671629,76 L61.3671629,59.6035111 C70.868549,59.1458747 78,57.2271069 78,54.9291226 Z M41.6,53.7138925 C41.6,52.378637 46.3525089,51.2554391 52.8,50.9285714 L52.8,56.5 C46.3525089,56.1731324 41.6,55.0496723 41.6,53.7138925 Z M61.2,56.5 L61.2,50.9285714 C67.6615282,51.2713071 72.4,52.3884884 72.4,53.7141541 C72.4,55.040083 67.6615282,56.1575276 61.2,56.5 Z" id="Shape" fill="#1049C4" fill-rule="nonzero"></path>
                    </g>
                    <g transform="translate(939.500000, 240.500000) rotate(-40.000000) translate(-939.500000, -240.500000) translate(906.000000, 207.000000)">
                        <circle id="椭圆形" fill="#2C3DCC" opacity="0.400000006" cx="33.6200321" cy="33.3065662" r="33"></circle>
                        <g id="编组" transform="translate(26.181660, 23.510982)" fill="#1049C4">
                            <path d="M12.4730323,8.72516597 C11.9911221,8.50330925 11.4679475,8.38861225 10.9386767,8.38878496 L5.58441503,8.38878496 C4.556588,8.38878496 3.72336957,7.54407386 3.72336957,6.5020699 L3.72336957,2.62410783e-13 L2.80410615e-13,2.62410783e-13 L2.80410615e-13,8.38878496 C0.000705703802,10.4732124 1.66730172,12.1627959 3.72336957,12.1635113 L9.07635263,12.1635113 C9.57004336,12.1635113 10.0435045,12.3623786 10.3925366,12.7163465 C10.7415687,13.0703144 10.9375677,13.5503743 10.9373981,14.0508745 L10.9373981,20.5522963 L14.6607677,20.5522963 L14.6607677,12.1635113 C14.6609414,10.6812614 13.8051072,9.33619307 12.4730323,8.72516597 Z" id="Path"></path>
                            <path d="M0.127862966,14.2116115 L0.127862966,20.5522963 L3.85123253,20.5522963 L3.85123253,17.9856898 C3.85087949,15.9012191 2.18397355,14.2116115 0.127862966,14.2116115 L0.127862966,14.2116115 Z" id="Path"></path>
                            <path d="M11.586942,1.31205391e-13 L10.8095351,1.31205391e-13 L10.8095351,2.56660654 C10.8098881,4.65118212 12.4766907,6.34097509 14.5329047,6.34133293 L14.5329047,1.31205391e-13 L11.586942,1.31205391e-13 Z" id="Path"></path>
                        </g>
                    </g>
                    <g transform="translate(1166.500000, 283.500000) rotate(-40.000000) translate(-1166.500000, -283.500000) translate(1093.000000, 210.000000)">
                        <circle id="椭圆形" fill="#2C3DCC" opacity="0.400000006" cx="73.5" cy="73.5" r="73.5"></circle>
                        <polygon id="Fill-3" fill="#1049C4" points="72.8810888 46 72.652927 46.0605 65.905088 47.8498333 60.217213 49.355 60.2118233 49.3678333 57.9553574 58.0908333 53.4082912 75.6321667 48.5809634 76.91 47.6234026 80.7343333 52.4094099 79.4675 47 100.352833 59.6638758 96.9978333 65.0750822 76.1161667 78.9480357 72.444 73.8134978 92.2641667 72.541541 97.1646667 71.5462527 101 71.5498458 101 78.9085116 99.0511667 84.211925 97.6486667 84.2155181 97.6468333 91.3855463 95.7493333 92.3395139 91.9231667 85.2090099 93.8096667 85.2090099 93.8078333 86.4755771 88.9091667 91.613708 69.089 99.0442358 67.1218333 100 63.2993333 92.6089963 65.2536667 95.1151825 55.581 95.1439273 55.4801667 96.0116606 52.1361667 86.3605979 49.5768333 86.3552083 49.5768333 86.3354463 49.5731667 76.1759601 46.8781667 75.3046337 50.2221667 84.1041321 52.5578333 84.0771838 52.6586667 79.9451205 68.6068333 66.072167 72.279 70.6156401 54.7523333 71.9864072 49.4576667 72.852344 46.1118333 72.8739026 46.0366667"></polygon>
                    </g>
                    <g transform="translate(1380.000000, 285.000000) rotate(-40.000000) translate(-1380.000000, -285.000000) translate(1335.000000, 240.000000)">
                        <circle id="椭圆形" fill="#2C3DCC" opacity="0.400000006" cx="45" cy="45" r="45"></circle>
                        <path d="M58.0071535,32 C60.2685235,32.0005926 62.3900766,33.0382398 63.7021623,34.7854169 C65.014248,36.532594 65.3549684,38.7737174 64.616778,40.8013951 L64.616778,40.8013951 L59.9845783,53.5280518 C59.0126788,56.2036828 56.3582428,57.9996245 53.3749539,58 L53.3749539,58 L25,58 L27.1849998,51.3257599 L53.3421789,51.3257599 L57.9497972,38.6742401 L31.3255745,38.6742401 L33.5105743,32 Z M49.8758634,41.554909 L49.8758634,41.9746399 L47.8301573,48.2265582 L28.8452401,48.2265582 L31.03024,41.554909 L49.8758634,41.554909 Z" id="形状结合" fill="#1049C4"></path>
                    </g>
                    <g transform="translate(639.500000, 124.500000) rotate(-70.000000) translate(-639.500000, -124.500000) translate(595.000000, 80.000000)">
                        <circle id="椭圆形" fill="#2C3DCC" opacity="0.400000006" cx="44.1341297" cy="44.6113012" r="44"></circle>
                        <path d="M59.2920875,48.9345574 L59.2920875,48.9371897 L43.3824056,71.9704605 L27.9188408,48.9345574 L43.3824056,58.0952182 L59.2920875,48.9345574 Z M43.8285227,39.713264 L59.9188408,46.1625798 L43.8285227,55.3232406 L27.9188408,46.1625798 L43.8285227,39.713264 Z M43.8285227,19.9704605 L59.2920875,43.4986175 L43.8285227,37.1545966 L27.9188408,43.4986175 L43.8285227,19.9730929 L43.8285227,19.9704605 Z" id="形状结合" fill="#1049C4" transform="translate(43.918841, 45.970460) rotate(40.000000) translate(-43.918841, -45.970460) "></path>
                    </g>
                    <g transform="translate(414.780963, 55.903247) rotate(-40.000000) translate(-414.780963, -55.903247) translate(375.780963, 16.903247)">
                        <circle id="椭圆形" fill="#2C3DCC" opacity="0.400000006" cx="39.0439716" cy="38.5104955" r="38.5"></circle>
                        <path d="M40.462663,40.1407683 C40.4660449,40.1410215 40.4678659,40.1412748 40.468126,40.1412748 C40.468126,40.1412748 43.9540287,39.6134539 47.424583,43.3089603 C50.3836981,46.4462529 56.9528036,52.8872387 56.9528036,52.8872387 L51.9950176,52.8872387 C51.9950176,52.8872387 48.6175941,49.1613395 47.3470607,48.0603618 C46.5622123,47.377791 45.9745515,46.7309318 45.4472437,46.1504301 C44.1218203,44.6913243 43.179586,43.6539181 40.4527776,43.5351331 C37.741838,43.6645556 36.8011645,44.693857 35.4747005,46.1453646 C34.9436987,46.7263729 34.3510432,47.3747518 33.5583906,48.0603618 C32.2879871,49.1613395 28.9105377,52.8872387 28.9105377,52.8872387 L23.9528036,52.8872387 C23.9528036,52.8872387 30.5217791,46.4462529 33.4809463,43.3089603 C36.8927345,39.6919685 40.3044967,40.1207597 40.462663,40.1407683 Z M28.9237041,23.8872387 C28.9237041,23.8872387 32.2995835,27.6129885 33.5694223,28.7141339 C34.3538018,29.3966131 34.9412934,30.0436589 35.4683041,30.624017 C36.7931113,32.0831436 37.7351676,33.1206913 40.4604483,33.2392248 C43.1701277,33.1100537 44.1103638,32.0806362 45.4364712,30.6290825 C45.9669141,30.0481672 46.5595021,29.3996271 47.3517863,28.7141339 C48.6214691,27.6129885 51.9973224,23.8872387 51.9973224,23.8872387 L51.9973224,23.8872387 L56.9528036,23.8872387 C56.9528036,23.8872387 50.387012,30.3281139 47.4290125,33.4656541 C44.0188364,37.0826976 40.6086603,36.653647 40.4508275,36.6338914 L40.4508275,36.6338914 C40.445107,36.6331316 36.9608249,37.1612133 33.4765168,33.4656541 C30.5187253,30.3281139 23.9528036,23.8872387 23.9528036,23.8872387 L23.9528036,23.8872387 Z" id="形状结合" fill="#1049C4"></path>
                    </g>
                    <g transform="translate(821.500000, 144.500000) rotate(-3.000000) translate(-821.500000, -144.500000) translate(791.000000, 114.000000)">
                        <circle id="椭圆形" fill="#2C3DCC" opacity="0.400000006" cx="30.1986419" cy="30.9693713" r="30"></circle>
                        <g id="编组" transform="translate(22.877248, 21.852394)" fill="#1049C4">
                            <path d="M11.6414968,7.89419778 C11.191714,7.69347027 10.7034177,7.5896968 10.2094316,7.58985306 L5.2121207,7.58985306 C4.25281547,7.58985306 3.47514493,6.82559063 3.47514493,5.88282515 L3.47514493,2.3741928e-13 L2.61716574e-13,2.3741928e-13 L2.61716574e-13,7.58985306 C0.000658656882,9.47576357 1.55614827,11.0044344 3.47514493,11.0050817 L8.47126245,11.0050817 C8.93204047,11.0050817 9.37393751,11.1850092 9.69970081,11.5052659 C10.0254641,11.8255226 10.2083965,12.2598625 10.2082382,12.712696 L10.2082382,18.5949348 L13.6833832,18.5949348 L13.6833832,11.0050817 C13.6835453,9.66399844 12.8847667,8.44703182 11.6414968,7.89419778 Z" id="Path"></path>
                            <path d="M0.119338768,12.8581247 L0.119338768,18.5949348 L3.5944837,18.5949348 L3.5944837,16.2727669 C3.59415419,14.3868173 2.03837532,12.8581247 0.119338768,12.8581247 L0.119338768,12.8581247 Z" id="Path"></path>
                            <path d="M10.8144792,1.1870964e-13 L10.0888995,1.1870964e-13 L10.0888995,2.32216782 C10.0892289,4.20821239 11.6449113,5.7370727 13.5640444,5.73739646 L13.5640444,1.1870964e-13 L10.8144792,1.1870964e-13 Z" id="Path"></path>
                        </g>
                    </g>
                    <g transform="translate(152.000000, 273.000000) rotate(-40.000000) translate(-152.000000, -273.000000) translate(107.000000, 228.000000)">
                        <circle id="椭圆形" fill="#2C3DCC" opacity="0.400000006" cx="45" cy="45" r="45"></circle>
                        <g id="编组" transform="translate(34.000000, 31.000000)" fill="#1049C4">
                            <path d="M17.4622452,12.0490387 C16.787571,11.7426652 16.0551266,11.5842741 15.3141474,11.5845126 L7.81818105,11.5845126 C6.3792232,11.5845126 5.21271739,10.4180068 5.21271739,8.97904891 L5.21271739,3.62376795e-13 L3.92574862e-13,3.62376795e-13 L3.92574862e-13,11.5845126 C0.000987985323,14.4630076 2.33422241,16.796242 5.21271739,16.79723 L12.7068937,16.79723 C13.3980607,16.7972299 14.0609063,17.0718562 14.5495512,17.560669 C15.0381962,18.0494818 15.3125948,18.7124217 15.3123573,19.4035887 L15.3123573,28.3817425 L20.5250748,28.3817425 L20.5250748,16.79723 C20.525318,14.7503134 19.3271501,12.892838 17.4622452,12.0490387 Z" id="Path"></path>
                            <path d="M0.179008152,19.6255588 L0.179008152,28.3817425 L5.39172554,28.3817425 L5.39172554,24.8373811 C5.39123129,21.9588263 3.05756297,19.6255588 0.179008152,19.6255588 L0.179008152,19.6255588 Z" id="Path"></path>
                            <path d="M16.2217188,1.81188398e-13 L15.1333492,1.81188398e-13 L15.1333492,3.54436141 C15.1338433,6.42306102 17.467367,8.75658465 20.3460666,8.7570788 L20.3460666,1.81188398e-13 L16.2217188,1.81188398e-13 Z" id="Path"></path>
                        </g>
                    </g>
                    <g transform="translate(1418.500000, 115.500000) rotate(22.000000) translate(-1418.500000, -115.500000) translate(1373.000000, 70.000000)">
                        <circle id="椭圆形" fill="#2C3DCC" opacity="0.400000006" cx="45.1829103" cy="45.3508976" r="45"></circle>
                        <path d="M31.1829103,48.1008976 L44.8573289,56.1478501 L44.8573289,67.3508976 L31.1829103,48.1008976 Z M59.1829103,48.1008976 L45.5084917,67.3508976 L45.5084917,56.1478501 L59.1829103,48.1008976 Z M44.8573289,23.3508976 L44.8573289,53.6008976 L31.1829103,45.6111112 L44.8573289,23.3508976 Z M45.5084917,23.3508976 L59.1829103,45.6160046 L45.5084917,53.6008976 L45.5084917,23.3508976 Z" id="形状结合" fill="#1049C4"></path>
                    </g>
                    <g transform="translate(729.500000, 284.500000) rotate(26.000000) translate(-729.500000, -284.500000) translate(625.000000, 180.000000)">
                        <circle id="椭圆形" fill="#2C3DCC" opacity="0.400000006" cx="104.25" cy="104.25" r="104.25"></circle>
                        <path d="M104.750788,36 C108.276938,38.5567652 111.803088,42.8180404 114.4477,48.7838258 C118.855388,56.4541213 121.5,66.681182 121.5,77.7604976 C121.5,82.0217728 119.736925,87.1353031 117.092313,91.3965785 C114.4477,96.5101089 110.040013,101.623639 106.513863,106.73717 C97.6984887,118.66874 88.0015768,130.600311 89.7646516,144.236392 C90.6461891,154.463453 95.0538764,162.133748 97.6984887,167.247278 C100.343101,172.360809 101.224639,174.065319 95.0538764,172.360809 C71.2523651,165.542768 47.4508538,130.600311 73.0154399,99.066874 L74.778515,95.6578537 C76.5415898,93.9533437 78.3046648,91.3965785 80.0677397,89.6920685 C90.6461891,78.6127527 102.987713,65.8289269 103.869251,36.8522549 C103.869251,36 104.750788,36 104.750788,36 Z M129.762034,87.375 C134.257642,90.9784922 148.643589,106.293334 146.845345,129.716033 C145.047102,154.039605 125.266426,164.850081 124.367304,165.750955 C114.476966,171.156193 118.073452,175.660558 114.476966,171.156193 C109.981357,165.750955 103.687506,158.54397 104.586627,145.931748 C104.586627,137.82389 108.183114,127.013414 117.174331,113.500318 C123.468182,103.590715 128.862912,92.7802382 128.862912,87.375 L129.762034,87.375 Z" id="形状结合" fill="#1049C4"></path>
                    </g>
                </g>
            </g>
        </g>
    </g>
</svg>